# xmcd CD database file
#
# Track frame offsets:
#	150
#	17057
#	40907
#	56860
#	74877
#	92545
#	110380
#	125972
#	137970
#	157015
#	177037
#	186392
#
# Disc length: 2836 seconds
#
# Revision: 0
# Processed by: cddbd v1.4PL0 Copyright (c) Steve Scherf et al.
# Submitted via: NeoAudio 9.9.9
#
DISCID=b70b120c
DTITLE=Melissa Sigler - Easy Way Out
DYEAR=1999
DGENRE=Jazz
TTITLE0=YOU MADE YOUR MARK
TTITLE1=IN A PERFECT WORLD
TTITLE2=ONE THING
TTITLE3=CALCASIEU RIVER
TTITLE4=THE BRA SLINGIN' BOOGIE
TTITLE5=MERRY CHRISTMAS BABY
TTITLE6=BELIEVE IN ME
TTITLE7=STORM WARNINGS
TTITLE8=TO FLY
TTITLE9=BAYOU BOY
TTITLE10=JESUS SAID
TTITLE11=EASY WAY OUT
EXTD=YEAR: 1999
EXTT0=
EXTT1=
EXTT2=
EXTT3=
EXTT4=
EXTT5=
EXTT6=
EXTT7=
EXTT8=
EXTT9=
EXTT10=
EXTT11=
PLAYORDER=
